<?xml version="1.0" standalone="no"?>
<!DOCTYPE svg PUBLIC "-//W3C//DTD SVG 1.1//EN" "http://www.w3.org/Graphics/SVG/1.1/DTD/svg11.dtd">
<svg xmlns="http://www.w3.org/2000/svg" id="Layer_2" viewBox="0 0 703.85 237" width="703.8499755859375" height="237"><g id="Layer_2-2"><path d="M484.82,56.21c-11.7,0-22.71,4.59-30.97,12.73-3.33,3.33-3.33,8.72,0,12.04,1.61,1.61,3.79,2.53,6.08,2.53s4.47-.92,6.08-2.53c5.05-5.05,11.7-7.8,18.81-7.8s13.88,2.75,18.93,7.8c1.6,1.61,3.79,2.53,6.08,2.53s4.47-.92,6.08-2.53c3.33-3.32,3.33-8.71,0-12.04-8.38-8.15-19.39-12.73-31.09-12.73h0Z" style="fill:#36b1b3;"/><path d="M555.72,29.36C536.78,10.44,511.55,0,484.82,0s-51.96,10.32-70.9,29.25c-3.32,3.33-3.32,8.72,0,12.05,1.61,1.6,3.79,2.52,6.08,2.52s4.47-.92,6.08-2.52c15.6-15.6,36.48-24.21,58.73-24.21s43.13,8.6,58.85,24.32c1.6,1.6,3.79,2.52,6.08,2.52s4.47-.92,6.08-2.52c3.21-3.33,3.21-8.72-.11-12.05h0Z" style="fill:#36b1b3;"/><path d="M484.82,28.79c-19.04,0-36.94,7.34-50.47,20.77-1.6,1.6-2.53,3.78-2.53,6.08s.92,4.47,2.53,6.08c1.6,1.61,3.79,2.53,6.08,2.53s4.47-.92,6.08-2.53c10.21-10.21,23.86-15.83,38.31-15.83s28.1,5.62,38.31,15.83c1.61,1.61,3.79,2.53,6.08,2.53s4.47-.92,6.08-2.53c1.6-1.6,2.53-3.79,2.53-6.08s-.92-4.47-2.53-6.08c-13.54-13.31-31.43-20.77-50.47-20.77h0Z" style="fill:#36b1b3;"/><path d="M145,87.5c3.78,0,6.94,1.22,9.48,3.67,2.55,2.45,3.83,5.33,3.83,8.67,0,1.45-.22,2.83-.67,4.17-.45,1.32-.83,2.59-1.17,3.81l-26.63,87.56c-1.11,3.45-2.95,6-5.5,7.67-2.56,1.67-5.56,2.5-9,2.5s-6.37-.83-8.81-2.5c-2.45-1.67-4.28-4.22-5.5-7.67l-21.81-59.92-21.96,59.92c-1.22,3.45-3.06,6-5.5,7.67-2.45,1.67-5.39,2.5-8.83,2.5s-6.43-.83-8.98-2.5c-2.56-1.67-4.39-4.22-5.5-7.67L1.83,107.81c-.45-1.22-.86-2.49-1.25-3.81-.39-1.33-.58-2.72-.58-4.17,0-3.33,1.27-6.22,3.81-8.67,2.55-2.44,5.72-3.67,9.5-3.67,3,0,5.74.81,8.23,2.42,2.5,1.61,4.14,3.75,4.92,6.42l17.48,66.08,22.98-66.08c1.22-3.33,2.94-5.64,5.17-6.92,2.22-1.28,4.55-1.92,6.98-1.92s4.67.64,7,1.92,4.11,3.58,5.33,6.92l22.98,66.08,17.48-66.08c.76-2.67,2.4-4.8,4.9-6.42,2.5-1.61,5.25-2.42,8.25-2.42h0Z" style="fill:#00254a;"/><path d="M246.22,117.47c3.54,0,6.48,1.17,8.81,3.5,2.33,2.32,3.5,5.09,3.5,8.31,0,1.22-.17,2.36-.5,3.42s-.72,2.03-1.17,2.92l-41.79,91.9c-1.45,3.21-3.28,5.59-5.5,7.15-2.21,1.55-4.59,2.33-7.15,2.33-3.45,0-6.28-1.2-8.5-3.58-2.21-2.38-3.31-5.12-3.31-8.23,0-1.22.17-2.39.5-3.5s.66-2.06.98-2.83l8.5-18.81-29.96-64.42c-.33-.89-.67-1.86-1-2.92-.33-1.05-.5-2.19-.5-3.42,0-3.22,1.16-5.99,3.48-8.31,2.33-2.33,5.22-3.5,8.67-3.5,2.55,0,4.94.78,7.17,2.33,2.22,1.54,4.05,3.93,5.48,7.15l19.48,44.63,20.15-44.63c1.44-3.22,3.3-5.6,5.58-7.15s4.64-2.33,7.08-2.33h0Z" style="fill:#00254a;"/><path d="M345.11,117.47c3.54,0,6.7,1.31,9.48,3.92,2.78,2.6,4.17,5.68,4.17,9.23v61.77c0,3.66-1.39,6.76-4.17,9.31-2.78,2.56-5.94,3.83-9.48,3.83-3.11,0-5.89-.97-8.33-2.92-2.45-1.94-4-4.41-4.67-7.4-1.22,2.1-3.67,4.37-7.33,6.81-3.66,2.45-8.54,3.67-14.65,3.67-4.54,0-9.18-.89-13.9-2.67-4.71-1.78-9.04-4.49-12.98-8.15-3.95-3.67-7.11-8.27-9.5-13.81-2.38-5.55-3.56-12.17-3.56-19.83s1.21-13.92,3.65-19.46c2.44-5.55,5.64-10.17,9.58-13.83,3.94-3.67,8.27-6.41,12.98-8.23,4.72-1.83,9.3-2.75,13.73-2.75,5.67,0,10.41,1.31,14.23,3.92,3.83,2.6,6.3,5.34,7.42,8.23v1.5c0-3.55,1.33-6.63,4-9.23,2.67-2.61,5.78-3.92,9.33-3.92h0ZM315.13,183.06c2.44,0,5.05-.67,7.83-2s5.13-3.57,7.06-6.73c1.94-3.17,2.92-7.53,2.92-13.08s-.97-9.73-2.92-12.9c-1.93-3.17-4.29-5.41-7.06-6.73-2.78-1.33-5.39-2-7.83-2-4.77,0-9.01,1.83-12.73,5.5-3.72,3.66-5.58,9.03-5.58,16.13s1.86,12.53,5.58,16.25c3.72,3.71,7.96,5.56,12.73,5.56h0Z" style="fill:#00254a;"/><path d="M406.03,180.39h38.13c3.22,0,6.02,1.17,8.4,3.5,2.39,2.33,3.58,5.22,3.58,8.67s-1.2,6.15-3.58,8.48c-2.38,2.33-5.18,3.5-8.4,3.5h-50.27c-4.45,0-8.08-1.42-10.92-4.25s-4.25-6.46-4.25-10.9v-87.9c0-3.89,1.36-7.19,4.08-9.92,2.72-2.72,5.97-4.08,9.75-4.08s6.95,1.36,9.56,4.08,3.92,6.03,3.92,9.92v78.9Z" style="fill:#00254a;"/><path d="M485.44,110.14c-3.56,0-6.7-1.3-9.42-3.9-2.72-2.61-4.08-5.64-4.08-9.08s1.36-6.63,4.08-9.23c2.72-2.61,5.86-3.92,9.42-3.92s6.67,1.31,9.4,3.92c2.72,2.6,4.08,5.68,4.08,9.23s-1.36,6.47-4.08,9.08c-2.72,2.6-5.85,3.9-9.4,3.9ZM485.44,117.47c3.54,0,6.65,1.31,9.31,3.92,2.67,2.6,4,5.79,4,9.56v61.1c0,3.77-1.33,6.95-4,9.56s-5.77,3.92-9.31,3.92-6.67-1.3-9.33-3.92c-2.67-2.61-4-5.8-4-9.56v-61.1c0-3.78,1.33-6.96,4-9.56,2.67-2.61,5.78-3.92,9.33-3.92h0Z" style="fill:#00254a;"/><path d="M572.51,117.14c5.76,0,10.97,1.42,15.63,4.25,4.67,2.82,8.39,7.26,11.17,13.31,2.78,6.04,4.17,13.95,4.17,23.71v33.81c0,3.66-1.31,6.76-3.92,9.31-2.61,2.56-5.74,3.83-9.4,3.83s-6.64-1.28-9.25-3.83-3.92-5.66-3.92-9.31v-33.81c0-6.54-1.36-11.3-4.08-14.29-2.71-3-6.29-4.5-10.73-4.5-3.45,0-6.25.7-8.42,2.08-2.16,1.38-3.84,3.04-5.06,4.98-1.22,1.95-2.06,3.75-2.5,5.42-.45,1.67-.67,2.72-.67,3.17v36.96c0,3.66-1.33,6.76-4,9.31-2.67,2.56-5.77,3.83-9.31,3.83s-6.67-1.28-9.33-3.83c-2.67-2.55-4-5.66-4-9.31v-61.27c0-3.78,1.33-6.96,4-9.56,2.67-2.61,5.78-3.92,9.33-3.92s6.65,1.31,9.31,3.92c2.67,2.6,4,5.79,4,9.56v5.17c.22-2.11,1.39-4.64,3.5-7.58s5.13-5.57,9.06-7.9c3.94-2.33,8.75-3.5,14.42-3.5h0Z" style="fill:#00254a;"/><path d="M700.68,185.89c.89.78,1.64,1.86,2.25,3.25s.92,2.97.92,4.75c0,2.99-1.11,5.65-3.33,7.98-2.22,2.33-4.94,3.5-8.15,3.5-3.56,0-6.28-1.22-8.17-3.67l-26.13-30.29-8,7.15v13.67c0,3.66-1.33,6.76-4,9.31-2.67,2.56-5.77,3.83-9.31,3.83s-6.67-1.28-9.33-3.83c-2.67-2.55-4-5.66-4-9.31v-93.23c0-3.67,1.33-6.8,4-9.42,2.67-2.61,5.78-3.92,9.33-3.92s6.65,1.31,9.31,3.92c2.67,2.61,4,5.75,4,9.42v48.6l27.65-26.29c1.09-1.11,2.42-2.03,3.98-2.75,1.55-.72,3.22-1.08,5-1.08,3.33,0,6.13,1.2,8.4,3.58,2.28,2.38,3.42,5.18,3.42,8.4,0,3.45-1.1,6.28-3.31,8.5l-20.48,18.48,25.96,29.46h-.01Z" style="fill:#00254a;"/></g></svg>